<?xml version="1.0" standalone="no"?><!DOCTYPE svg PUBLIC "-//W3C//DTD SVG 1.1//EN" "http://www.w3.org/Graphics/SVG/1.1/DTD/svg11.dtd"><svg t="1525918112043" class="icon" style="" viewBox="0 0 1025 1024" version="1.1" xmlns="http://www.w3.org/2000/svg" p-id="1430" xmlns:xlink="http://www.w3.org/1999/xlink" width="300.29296875" height="300"><defs><style type="text/css"></style></defs><path d="M906.68249 548.8c-35.669333-20.672-76.202667-31.530667-117.162667-31.530667-83.754667 0-161.706667 44.970667-203.498667 117.397333-64.746667 112.106667-26.218667 255.957333 85.866667 320.682667 35.712 20.608 76.202667 31.509333 117.205333 31.509333 83.712 0 161.664-45.013333 203.498667-117.418667C1057.33849 757.333333 1018.767824 613.482667 906.68249 548.8zM955.557157 848.064c-34.218667 59.178667-98.005333 96.021333-166.464 96.021333-33.536 0-66.666667-8.874667-95.829333-25.749333-91.669333-52.949333-123.242667-170.581333-70.293333-262.293333 34.218667-59.242667 98.005333-96.042667 166.506667-96.042667 33.493333 0 66.666667 8.896 95.829333 25.749333C977.01849 638.698667 1008.50649 756.330667 955.557157 848.064z" p-id="1431" fill="#1296db"></path><path d="M746.789157 271.893333c0-129.429333-105.28-234.752-234.730667-234.752-129.450667 0-234.773333 105.344-234.773333 234.773333S382.607824 506.666667 512.05849 506.666667C641.509157 506.666667 746.789157 401.322667 746.789157 271.893333zM512.05849 463.936c-105.898667 0-192.042667-86.165333-192.042667-192.021333 0-105.877333 86.165333-192.021333 192.042667-192.021333 105.92 0 192 86.144 192 192.021333C704.05849 377.770667 617.957157 463.936 512.05849 463.936z" p-id="1432" fill="#1296db"></path><path d="M234.661157 517.248c-41.002667 0-81.514667 10.88-117.205333 31.509333-54.272 31.338667-93.141333 81.962667-109.354667 142.570667-16.234667 60.565333-7.893333 123.84 23.445333 178.133333 41.834667 72.448 119.808 117.418667 203.52 117.418667 40.981333 0 81.493333-10.901333 117.184-31.530667 112.085333-64.725333 150.613333-208.576 85.909333-320.682667C396.34649 562.24 318.373157 517.248 234.661157 517.248zM330.853157 918.336c-29.184 16.874667-62.314667 25.749333-95.808 25.749333-68.48 0-132.288-36.842667-166.506667-96.021333-25.664-44.437333-32.448-96.192-19.178667-145.706667 13.290667-49.557333 45.056-90.965333 89.472-116.608C168.037157 568.896 201.167824 560 234.68249 560c68.48 0 132.266667 36.8 166.442667 96.042667C454.031824 747.754667 422.543824 865.365333 330.853157 918.336z" p-id="1433" fill="#1296db"></path></svg>