<?xml version="1.0" standalone="no"?><!DOCTYPE svg PUBLIC "-//W3C//DTD SVG 1.1//EN" "http://www.w3.org/Graphics/SVG/1.1/DTD/svg11.dtd"><svg t="1525918076113" class="icon" style="" viewBox="0 0 1024 1024" version="1.1" xmlns="http://www.w3.org/2000/svg" p-id="1183" xmlns:xlink="http://www.w3.org/1999/xlink" width="300" height="300"><defs><style type="text/css"></style></defs><path d="M797 412.2c6.3 2 9.8 8.7 7.8 15-2 6.3-8.7 9.8-15 7.9-43.6-13.5-83.5-17.9-121.1-12.8-35.4 4.8-69.1 18-102.2 39.9 0.9 10.4 1.1 21.1 0.7 32-0.5 13.5-1.9 27.3-4.4 41.3-0.6 3.4 1 5.4 3.9 6.8a310 310 0 0 1 22.7 12.1c7.7 4.5 18 11.8 25.6 17 12.9 8.9-0.1 27.8-13 18.9-2.3-1.6-7.8-4.8-10.2-6.3 4.8 18.5 4.1 37.8 1 56.5-2 12.3-5.2 24.8-9.2 37.4-1.1 14 1.9 26.3 4.9 38.6 4.3 17.9 8.7 35.9 3.6 60.1-1.3 6.4-7.7 10.6-14.1 9.2-6.5-1.3-10.6-7.7-9.3-14.1 3.8-18 0.6-32.9-2.9-47.5-10.3 23.4-21.7 45.7-31.6 65l-3.2 6.2c-3 5.9-10.2 8.2-16 5.2-5.9-3-8.2-10.2-5.2-16l3.2-6.2c14.7-28.7 33-64.3 45.2-99.4-1.4 1.1-2.7 2.2-4.1 3.3-24.7 19-57 35.2-81.7 43.1-6.3 2-13-1.5-15-7.7-2-6.3 1.5-13 7.8-15 22.3-7.1 51.7-22 74.4-39.4 11.4-8.8 20.9-17.9 26.3-26.5 7.8-12.3 6.5-29 3.7-42.6-2.4-12.1-7.5-22.9-16-31.9-10.8-6.3-16.5-18.5-14.3-30.9 2.3-13.2 3.6-25.9 4.1-38 0.4-12.2 0-24.1-1.3-35.8-0.5-4.2 1.3-8.5 5.1-11.1 38.1-26.3 77-42.2 118.3-47.8 41.3-5.7 84.6-1.1 131.5 13.5zM359 263.5c-17.1-4.9-35-8.6-53.5-11-6.5-0.9-11.1-6.8-10.3-13.4 0.9-6.5 6.8-11.2 13.4-10.3 24.1 3.2 47.4 8.4 69.4 15.5-6.9 5.9-13.2 12.3-19 19.2zM802.8 354c-46.6-14.5-91.4-21.2-136.2-17.7-41.3 3.3-82.4 15.3-124.7 38.2-5.1-10-11-19.6-17.5-28.8-9.5-8.6-21.3-7.6-32-1.9 13.6 15.6 24.9 33.1 33.3 52.2l0.6 1.2c3.3 5.7 10.6 7.7 16.3 4.4 43.1-25.1 84.5-38 125.9-41.3 41.6-3.3 83.4 3 127.2 16.7 6.3 1.9 13-1.6 15-7.9 1.9-6.4-1.6-13.1-7.9-15.1zM325 319.6c-16.5-4.8-34.2-8.9-52.8-12.5-6.5-1.3-10.7-7.5-9.5-14 1.2-6.5 7.5-10.7 14-9.5 20.7 4 40.3 8.6 58.7 14.2-3.8 7-7.3 14.3-10.4 21.8z m96.6 221.6c4.4-1.3 9.5-2.2 15.1-2.8 6.3-0.7 13-0.9 19.6-0.8 8 0.1 15.4-2.9 20.9-8 5.5-5.1 9-12.3 9.5-20.3 2.9-54.2-6.7-95.2-26.1-126.8-4.8 12.3-7.3 25.5-8 38.8 8.4 23.6 12.1 52.1 10.3 86.8-0.1 1.6-0.8 3-1.9 4.1-1.1 1-2.6 1.6-4.2 1.6-7.7-0.1-15.3 0.1-22.4 0.9-6.8 0.7-13.4 1.9-19.3 3.6-6.3 1.8-10 8.5-8.1 14.8 1.7 6.2 8.3 9.9 14.6 8.1z" fill="#CD4545" p-id="1184"></path><path d="M343.1 483.4c-25.2-93.5 8.9-218 109.4-246 14.2-24.1 17.9-59.8 13-104.6h70.1c6.6 29.8 6.6 68.7-8.7 97.9 24.6-25.5 44.9-54 59.5-86.6l78.1 16.4c-14 39.4-37.1 74.6-66.3 107.9 11.5 11.1 24 27.2 33.5 43.8L553.3 342c-43.2-80.6-155-3.1-126.1 129 9.5 43.4-76.2 41.5-84.1 12.4z" fill="#CD4545" p-id="1185"></path><path d="M280.3 516.5c5.9-7.9 17.1-9.6 25-3.7 7.9 5.9 9.6 17.1 3.7 25-18.8 25.3-23.1 55.2-17.4 84.3 6.8 33.9 27 66.7 54.4 90.6 41.2 35.9 138.5 152 181.6 149.7 6.2-0.3 13-2.1 20.1-5.2 67-29.2 122-129.8 118.3-201.3-0.8-15.9-4.1-31.3-10.4-45.8-2.5-5.7-0.4-1.1-1.1-2.5-8.3-18.7-9.6-21.6 7.1-40.7 3.4-3.9 6.6-8.1 9.5-12.6 10.8-16.8 16.9-36.7 14.3-57.4-1.8-14.3-7.7-29.2-19.1-44 2.1-0.4 4.3-0.7 6.5-1 11.5-1.6 23-2.1 34.4-1.7 7.6 14.1 12 28.4 13.8 42.3 3.7 29.6-4.6 57.7-19.7 81.1-3.8 5.8-8 11.5-12.7 16.8-1.7 1.9-1.7 2.1-1.4 2.7 1.3 3-0.4-1.1 1.2 2.7 8.1 18.6 12.3 38.2 13.4 58.3 4.5 86.4-58.8 200.7-139.7 235.9-11 4.8-21.9 7.6-32.6 8.2-66 3.5-153.2-111.7-207-158.6-33.1-28.9-57.7-68.9-66-110.6-4-19.9-4.3-40.3-0.1-60-4.1-5.8-7.6-11.8-10.5-17.9-13.8-29.4-12.9-61.1-2.6-90.4 10-28.1 28.8-54.1 51.6-73.4 4.5-3.8 9.2-7.4 14-10.6-2.7 16.6-3.9 33.4-3.6 50.1-12.4 13.3-22.4 29.1-28.2 45.8-6.1 17.3-7.7 35.6-2.8 52.7 1.9-3 3.9-5.9 6-8.8z" fill="#CD4545" p-id="1186"></path></svg>