<?xml version="1.0" standalone="no"?><!DOCTYPE svg PUBLIC "-//W3C//DTD SVG 1.1//EN" "http://www.w3.org/Graphics/SVG/1.1/DTD/svg11.dtd"><svg t="1525918167881" class="icon" style="" viewBox="0 0 1024 1024" version="1.1" xmlns="http://www.w3.org/2000/svg" p-id="1659" xmlns:xlink="http://www.w3.org/1999/xlink" width="300" height="300"><defs><style type="text/css"></style></defs><path d="M612.455923 639.84062 612.455923 192.990432c0-68.882833-56.630788-130.036635-124.106576-130.036635-67.478857 0-121.80209 58.789964-121.80209 127.671775l0 444.485327c-37.292348 34.243919-61.476143 81.70793-61.476143 136.883577 0 103.296621 82.032318 187.024557 183.278233 187.024557 101.242845 0 183.275163-83.727936 183.275163-187.024557C671.625534 716.819852 649.689942 674.083515 612.455923 639.84062zM488.328881 909.371286c-72.355935 0-131.450844-62.730717-133.578298-136.90916-2.254344-78.586846 54.359049-113.706715 54.359049-113.706715l0-479.951073c0-37.072337 43.13338-73.310679 79.282694-73.310679 36.205597 0 81.503269 36.238342 81.503269 73.310679l0 484.678748c31.109532 23.892153 52.076052 70.926376 52.016701 108.97904C621.911272 846.671269 560.684816 909.371286 488.328881 909.371286zM672.27738 217.628576l69.800739 0c11.882632 0 21.544689-9.671267 21.544689-21.557992 0-11.886725-9.662057-21.559015-21.544689-21.559015l-69.800739 0c-11.93789 0-21.545712 9.671267-21.545712 21.559015C650.731668 207.957309 660.396795 217.628576 672.27738 217.628576zM742.077096 239.185544l-69.800739 0c-11.93789 0-21.600971 9.671267-21.545712 21.557992 0 11.887748 9.66615 21.559015 21.545712 21.559015l69.800739 0c11.882632 0 21.544689-9.671267 21.544689-21.559015C763.621784 248.857834 753.959727 239.185544 742.077096 239.185544zM742.077096 303.916824l-69.800739 0c-11.93789 0-21.600971 9.671267-21.545712 21.557992 0 11.887748 9.66615 21.559015 21.545712 21.559015l69.800739 0c11.882632 0 21.544689-9.671267 21.544689-21.559015C763.621784 313.587068 753.959727 303.916824 742.077096 303.916824zM557.360094 693.724855l-27.662013-23.14821c0 0 0-112.940259 0-113.485681 0-23.50432-16.690124-42.558281-40.196491-42.558281-23.505343 0-42.561351 19.053961-42.561351 42.558281l0 113.485681-27.604708 23.14821c-22.51069 20.650319-34.846646 48.462758-34.846646 78.270645 0 58.417481 46.613644 105.968473 103.861486 105.968473 57.243749 0 103.857393-47.552016 103.857393-105.968473C592.207763 742.246965 579.816548 714.431455 557.360094 693.724855z" p-id="1660" fill="#13227a"></path></svg>